<?xml version="1.0" encoding="UTF-8" standalone="no"?><svg xmlns="http://www.w3.org/2000/svg" xmlns:xlink="http://www.w3.org/1999/xlink" contentScriptType="application/ecmascript" contentStyleType="text/css" height="841.25px" preserveAspectRatio="none" style="width:715px;height:841px;" version="1.1" viewBox="0 0 715 841" width="715px" zoomAndPan="magnify"><defs><filter height="300%" id="f1433y891doeci" width="300%" x="-1" y="-1"><feGaussianBlur result="blurOut" stdDeviation="2.5"/><feColorMatrix in="blurOut" result="blurOut2" type="matrix" values="0 0 0 0 0 0 0 0 0 0 0 0 0 0 0 0 0 0 .4 0"/><feOffset dx="5.0" dy="5.0" in="blurOut2" result="blurOut3"/><feBlend in="SourceGraphic" in2="blurOut3" mode="normal"/></filter></defs><g><rect fill="#FEFECE" filter="url(#f1433y891doeci)" height="47.0117" rx="15.625" ry="15.625" style="stroke: #A80036; stroke-width: 1.875;" width="192.5" x="12.5" y="403.0615"/><text fill="#000000" font-family="sans-serif" font-size="17.5" lengthAdjust="spacingAndGlyphs" textLength="167.5" x="25" y="433.728">localhost:3000/api/v2</text><rect fill="#FEFECE" filter="url(#f1433y891doeci)" height="47.0117" rx="15.625" ry="15.625" style="stroke: #A80036; stroke-width: 1.875;" width="65" x="267.5" y="97.0117"/><text fill="#000000" font-family="sans-serif" font-size="17.5" lengthAdjust="spacingAndGlyphs" textLength="40" x="280" y="127.6782">/card</text><rect fill="#FEFECE" filter="url(#f1433y891doeci)" height="47.0117" rx="15.625" ry="15.625" style="stroke: #A80036; stroke-width: 1.875;" width="61.25" x="395" y="25"/><text fill="#000000" font-family="sans-serif" font-size="17.5" lengthAdjust="spacingAndGlyphs" textLength="36.25" x="407.5" y="55.6665">GET</text><path d="M332.5,120.5176 L345,120.5176 C363.75,120.5176 363.75,48.5059 382.5,48.5059 L395,48.5059 " fill="none" style="stroke: #A80036; stroke-width: 1.25;"/><rect fill="#FEFECE" filter="url(#f1433y891doeci)" height="47.0117" rx="15.625" ry="15.625" style="stroke: #A80036; stroke-width: 1.875;" width="92.5" x="395" y="97.0117"/><text fill="#000000" font-family="sans-serif" font-size="17.5" lengthAdjust="spacingAndGlyphs" textLength="67.5" x="407.5" y="127.6782">GET(:id)</text><path d="M332.5,120.5176 L345,120.5176 C363.75,120.5176 363.75,120.5176 382.5,120.5176 L395,120.5176 " fill="none" style="stroke: #A80036; stroke-width: 1.25;"/><rect fill="#FEFECE" filter="url(#f1433y891doeci)" height="47.0117" rx="15.625" ry="15.625" style="stroke: #A80036; stroke-width: 1.875;" width="113.75" x="395" y="169.0234"/><text fill="#000000" font-family="sans-serif" font-size="17.5" lengthAdjust="spacingAndGlyphs" textLength="88.75" x="407.5" y="199.6899">GET(:MAX)</text><path d="M332.5,120.5176 L345,120.5176 C363.75,120.5176 363.75,192.5293 382.5,192.5293 L395,192.5293 " fill="none" style="stroke: #A80036; stroke-width: 1.25;"/><path d="M205,426.5674 L217.5,426.5674 C236.25,426.5674 236.25,120.5176 255,120.5176 L267.5,120.5176 " fill="none" style="stroke: #A80036; stroke-width: 1.25;"/><rect fill="#FEFECE" filter="url(#f1433y891doeci)" height="47.0117" rx="15.625" ry="15.625" style="stroke: #A80036; stroke-width: 1.875;" width="111.25" x="267.5" y="241.0352"/><text fill="#000000" font-family="sans-serif" font-size="17.5" lengthAdjust="spacingAndGlyphs" textLength="86.25" x="280" y="271.7017">/applyCard</text><rect fill="#FEFECE" filter="url(#f1433y891doeci)" height="47.0117" rx="15.625" ry="15.625" style="stroke: #A80036; stroke-width: 1.875;" width="72.5" x="441.25" y="241.0352"/><text fill="#000000" font-family="sans-serif" font-size="17.5" lengthAdjust="spacingAndGlyphs" textLength="47.5" x="453.75" y="271.7017">POST</text><path d="M378.75,264.541 L391.25,264.541 C410,264.541 410,264.541 428.75,264.541 L441.25,264.541 " fill="none" style="stroke: #A80036; stroke-width: 1.25;"/><path d="M205,426.5674 L217.5,426.5674 C236.25,426.5674 236.25,264.541 255,264.541 L267.5,264.541 " fill="none" style="stroke: #A80036; stroke-width: 1.25;"/><rect fill="#FEFECE" filter="url(#f1433y891doeci)" height="47.0117" rx="15.625" ry="15.625" style="stroke: #A80036; stroke-width: 1.875;" width="245" x="267.5" y="313.0469"/><text fill="#000000" font-family="sans-serif" font-size="17.5" lengthAdjust="spacingAndGlyphs" textLength="220" x="280" y="343.7134">/modifiedAndCreateAccount</text><rect fill="#FEFECE" filter="url(#f1433y891doeci)" height="47.0117" rx="15.625" ry="15.625" style="stroke: #A80036; stroke-width: 1.875;" width="92.5" x="575" y="205.0293"/><text fill="#000000" font-family="sans-serif" font-size="17.5" lengthAdjust="spacingAndGlyphs" textLength="67.5" x="587.5" y="235.6958">PUT(:ID)</text><path d="M512.5,336.5527 L525,336.5527 C543.75,336.5527 543.75,228.5352 562.5,228.5352 L575,228.5352 " fill="none" style="stroke: #A80036; stroke-width: 1.25;"/><rect fill="#FEFECE" filter="url(#f1433y891doeci)" height="47.0117" rx="15.625" ry="15.625" style="stroke: #A80036; stroke-width: 1.875;" width="72.5" x="575" y="277.041"/><text fill="#000000" font-family="sans-serif" font-size="17.5" lengthAdjust="spacingAndGlyphs" textLength="47.5" x="587.5" y="307.7075">POST</text><path d="M512.5,336.5527 L525,336.5527 C543.75,336.5527 543.75,300.5469 562.5,300.5469 L575,300.5469 " fill="none" style="stroke: #A80036; stroke-width: 1.25;"/><rect fill="#FEFECE" filter="url(#f1433y891doeci)" height="47.0117" rx="15.625" ry="15.625" style="stroke: #A80036; stroke-width: 1.875;" width="95" x="575" y="349.0527"/><text fill="#000000" font-family="sans-serif" font-size="17.5" lengthAdjust="spacingAndGlyphs" textLength="70" x="587.5" y="379.7192">GET(:ID)</text><path d="M512.5,336.5527 L525,336.5527 C543.75,336.5527 543.75,372.5586 562.5,372.5586 L575,372.5586 " fill="none" style="stroke: #A80036; stroke-width: 1.25;"/><rect fill="#FEFECE" filter="url(#f1433y891doeci)" height="47.0117" rx="15.625" ry="15.625" style="stroke: #A80036; stroke-width: 1.875;" width="126.25" x="575" y="421.0645"/><text fill="#000000" font-family="sans-serif" font-size="17.5" lengthAdjust="spacingAndGlyphs" textLength="101.25" x="587.5" y="451.731">DELETE(:ID)</text><path d="M512.5,336.5527 L525,336.5527 C543.75,336.5527 543.75,444.5703 562.5,444.5703 L575,444.5703 " fill="none" style="stroke: #A80036; stroke-width: 1.25;"/><path d="M205,426.5674 L217.5,426.5674 C236.25,426.5674 236.25,336.5527 255,336.5527 L267.5,336.5527 " fill="none" style="stroke: #A80036; stroke-width: 1.25;"/><rect fill="#FEFECE" filter="url(#f1433y891doeci)" height="47.0117" rx="15.625" ry="15.625" style="stroke: #A80036; stroke-width: 1.875;" width="157.5" x="267.5" y="637.0996"/><text fill="#000000" font-family="sans-serif" font-size="17.5" lengthAdjust="spacingAndGlyphs" textLength="132.5" x="280" y="667.7661">/adminPageCard</text><rect fill="#FEFECE" filter="url(#f1433y891doeci)" height="47.0117" rx="15.625" ry="15.625" style="stroke: #A80036; stroke-width: 1.875;" width="72.5" x="487.5" y="493.0762"/><text fill="#000000" font-family="sans-serif" font-size="17.5" lengthAdjust="spacingAndGlyphs" textLength="47.5" x="500" y="523.7427">POST</text><path d="M425,660.6055 L437.5,660.6055 C456.25,660.6055 456.25,516.582 475,516.582 L487.5,516.582 " fill="none" style="stroke: #A80036; stroke-width: 1.25;"/><rect fill="#FEFECE" filter="url(#f1433y891doeci)" height="47.0117" rx="15.625" ry="15.625" style="stroke: #A80036; stroke-width: 1.875;" width="92.5" x="487.5" y="565.0879"/><text fill="#000000" font-family="sans-serif" font-size="17.5" lengthAdjust="spacingAndGlyphs" textLength="67.5" x="500" y="595.7544">PUT(:ID)</text><path d="M425,660.6055 L437.5,660.6055 C456.25,660.6055 456.25,588.5938 475,588.5938 L487.5,588.5938 " fill="none" style="stroke: #A80036; stroke-width: 1.25;"/><rect fill="#FEFECE" filter="url(#f1433y891doeci)" height="47.0117" rx="15.625" ry="15.625" style="stroke: #A80036; stroke-width: 1.875;" width="73.75" x="487.5" y="637.0996"/><text fill="#000000" font-family="sans-serif" font-size="17.5" lengthAdjust="spacingAndGlyphs" textLength="48.75" x="500" y="667.7661">GET()</text><path d="M425,660.6055 L437.5,660.6055 C456.25,660.6055 456.25,660.6055 475,660.6055 L487.5,660.6055 " fill="none" style="stroke: #A80036; stroke-width: 1.25;"/><rect fill="#FEFECE" filter="url(#f1433y891doeci)" height="47.0117" rx="15.625" ry="15.625" style="stroke: #A80036; stroke-width: 1.875;" width="113.75" x="487.5" y="709.1113"/><text fill="#000000" font-family="sans-serif" font-size="17.5" lengthAdjust="spacingAndGlyphs" textLength="88.75" x="500" y="739.7778">GET(:MAX)</text><path d="M425,660.6055 L437.5,660.6055 C456.25,660.6055 456.25,732.6172 475,732.6172 L487.5,732.6172 " fill="none" style="stroke: #A80036; stroke-width: 1.25;"/><rect fill="#FEFECE" filter="url(#f1433y891doeci)" height="47.0117" rx="15.625" ry="15.625" style="stroke: #A80036; stroke-width: 1.875;" width="121.25" x="487.5" y="781.123"/><text fill="#000000" font-family="sans-serif" font-size="17.5" lengthAdjust="spacingAndGlyphs" textLength="96.25" x="500" y="811.7896">DELETE(ID)</text><path d="M425,660.6055 L437.5,660.6055 C456.25,660.6055 456.25,804.6289 475,804.6289 L487.5,804.6289 " fill="none" style="stroke: #A80036; stroke-width: 1.25;"/><path d="M205,426.5674 L217.5,426.5674 C236.25,426.5674 236.25,660.6055 255,660.6055 L267.5,660.6055 " fill="none" style="stroke: #A80036; stroke-width: 1.25;"/><!--MD5=[d72e91dde9f6b00dcb02ec977b98cb20]
@startmindmap
* localhost:3000/api/v2
** /card

*** GET
*** GET(:id)
*** GET(:MAX)

** /applyCard
*** POST

** /modifiedAndCreateAccount
*** PUT(:ID)
*** POST
*** GET(:ID)
*** DELETE(:ID)

** /adminPageCard
*** POST
*** PUT(:ID)
*** GET()
*** GET(:MAX)
*** DELETE(ID)


@endmindmap

PlantUML version 1.2020.09(Sun May 10 12:51:06 CEST 2020)
(GPL source distribution)
Java Runtime: OpenJDK Runtime Environment
JVM: OpenJDK 64-Bit Server VM
Java Version: 11.0.8+10-b944.34
Operating System: Windows 10
Default Encoding: Cp1252
Language: fr
Country: FR
--></g></svg>