<?xml version="1.0" encoding="UTF-8" standalone="no"?><svg xmlns="http://www.w3.org/2000/svg" xmlns:xlink="http://www.w3.org/1999/xlink" contentScriptType="application/ecmascript" contentStyleType="text/css" height="800.8px" preserveAspectRatio="none" style="width:1017px;height:800px;" version="1.1" viewBox="0 0 1017 800" width="1017.5px" zoomAndPan="magnify"><defs><filter height="300%" id="fjzqg1qpsiujj" width="300%" x="-1" y="-1"><feGaussianBlur result="blurOut" stdDeviation="2.2"/><feColorMatrix in="blurOut" result="blurOut2" type="matrix" values="0 0 0 0 0 0 0 0 0 0 0 0 0 0 0 0 0 0 .4 0"/><feOffset dx="4.4" dy="4.4" in="blurOut2" result="blurOut3"/><feBlend in="SourceGraphic" in2="blurOut3" mode="normal"/></filter></defs><g><!--MD5=[dedc97eafe677ac0b50813bd1a9d3b7f]
class modifiedAndCreateAccount--><rect fill="#FEFECE" filter="url(#fjzqg1qpsiujj)" height="113.6781" id="modifiedAndCreateAccount" style="stroke: #A80036; stroke-width: 1.6500000000000001;" width="339.9" x="441.7138" y="255.2"/><ellipse cx="525.0388" cy="272.8" fill="#ADD1B2" rx="12.1" ry="12.1" style="stroke: #A80036; stroke-width: 1.1;"/><path d="M527.2388,268.95 Q527.4622,268.4 527.7201,268.125 Q527.9779,267.85 528.2701,267.85 Q528.7857,267.85 529.1122,268.1594 Q529.4388,268.4688 529.4388,269.1906 L529.4388,270.9094 Q529.4388,271.6313 529.1294,271.9406 Q528.8201,272.25 528.3388,272.25 Q527.9091,272.25 527.6341,272.0609 Q527.3591,271.8719 527.2388,271.3734 Q527.1872,271.0297 526.9982,270.8406 Q526.6544,270.4797 526.0357,270.2734 Q525.4169,270.05 524.7982,270.05 Q524.0247,270.05 523.3716,270.3594 Q522.7357,270.6688 522.2372,271.3563 Q521.7388,272.0438 521.7388,272.9891 L521.7388,274.0031 Q521.7388,275.1375 522.6669,275.8938 Q523.5951,276.65 525.2451,276.65 Q526.2247,276.65 526.9122,276.4266 Q527.3076,276.3063 527.7544,275.9109 Q528.0466,275.6875 528.2013,275.6188 Q528.356,275.55 528.5451,275.55 Q528.906,275.55 529.1638,275.8422 Q529.4388,276.1172 529.4388,276.5125 Q529.4388,276.8906 529.0607,277.3375 Q528.5107,277.9906 527.6341,278.3516 Q526.4826,278.85 525.0732,278.85 Q523.4232,278.85 522.0997,278.1969 Q521.0341,277.6813 520.2779,276.5641 Q519.5388,275.4469 519.5388,274.1234 L519.5388,272.9203 Q519.5388,271.5453 520.1919,270.3422 Q520.8622,269.1391 522.0138,268.5031 Q523.1826,267.85 524.4888,267.85 Q525.2794,267.85 525.9669,268.125 Q526.6544,268.4 527.2388,268.95 Z "/><text fill="#000000" font-family="sans-serif" font-size="13.2" lengthAdjust="spacingAndGlyphs" textLength="163.9" x="547.5888" y="278.2012">modifiedAndCreateAccount</text><line style="stroke: #A80036; stroke-width: 1.6500000000000001;" x1="442.8138" x2="780.5138" y1="290.4" y2="290.4"/><line style="stroke: #A80036; stroke-width: 1.6500000000000001;" x1="442.8138" x2="780.5138" y1="299.2" y2="299.2"/><text fill="#000000" font-family="sans-serif" font-size="12.1" lengthAdjust="spacingAndGlyphs" textLength="60.5" x="448.3138" y="316.1608">+getAll():int</text><text fill="#000000" font-family="sans-serif" font-size="12.1" lengthAdjust="spacingAndGlyphs" textLength="310.2" x="448.3138" y="331.3804">+add(mailPeople, namePeople, phonePeople, statusPeople)</text><text fill="#000000" font-family="sans-serif" font-size="12.1" lengthAdjust="spacingAndGlyphs" textLength="326.7" x="448.3138" y="346.5999">+update(mailPeople, namePeople, phonePeople, statusPeople)</text><text fill="#000000" font-family="sans-serif" font-size="12.1" lengthAdjust="spacingAndGlyphs" textLength="62.7" x="448.3138" y="361.8194">+delete():int</text><!--MD5=[5be939da485069d578e40f6167ec96f0]
class adminPageCard--><rect fill="#FEFECE" filter="url(#fjzqg1qpsiujj)" height="387.6297" id="adminPageCard" style="stroke: #A80036; stroke-width: 1.6500000000000001;" width="255.2" x="96.8634" y="401.5"/><ellipse cx="169.7384" cy="419.1" fill="#ADD1B2" rx="12.1" ry="12.1" style="stroke: #A80036; stroke-width: 1.1;"/><path d="M171.9384,415.25 Q172.1618,414.7 172.4196,414.425 Q172.6774,414.15 172.9696,414.15 Q173.4852,414.15 173.8118,414.4594 Q174.1384,414.7688 174.1384,415.4906 L174.1384,417.2094 Q174.1384,417.9313 173.829,418.2406 Q173.5196,418.55 173.0384,418.55 Q172.6087,418.55 172.3337,418.3609 Q172.0587,418.1719 171.9384,417.6734 Q171.8868,417.3297 171.6977,417.1406 Q171.354,416.7797 170.7352,416.5734 Q170.1165,416.35 169.4977,416.35 Q168.7243,416.35 168.0712,416.6594 Q167.4352,416.9688 166.9368,417.6563 Q166.4384,418.3438 166.4384,419.2891 L166.4384,420.3031 Q166.4384,421.4375 167.3665,422.1938 Q168.2946,422.95 169.9446,422.95 Q170.9243,422.95 171.6118,422.7266 Q172.0071,422.6063 172.454,422.2109 Q172.7462,421.9875 172.9009,421.9188 Q173.0555,421.85 173.2446,421.85 Q173.6055,421.85 173.8634,422.1422 Q174.1384,422.4172 174.1384,422.8125 Q174.1384,423.1906 173.7602,423.6375 Q173.2102,424.2906 172.3337,424.6516 Q171.1821,425.15 169.7727,425.15 Q168.1227,425.15 166.7993,424.4969 Q165.7337,423.9813 164.9774,422.8641 Q164.2384,421.7469 164.2384,420.4234 L164.2384,419.2203 Q164.2384,417.8453 164.8915,416.6422 Q165.5618,415.4391 166.7134,414.8031 Q167.8821,414.15 169.1884,414.15 Q169.979,414.15 170.6665,414.425 Q171.354,414.7 171.9384,415.25 Z "/><text fill="#000000" font-family="sans-serif" font-size="13.2" lengthAdjust="spacingAndGlyphs" textLength="100.1" x="192.2884" y="424.5012">adminPageCard</text><line style="stroke: #A80036; stroke-width: 1.6500000000000001;" x1="97.9634" x2="350.9634" y1="436.7" y2="436.7"/><line style="stroke: #A80036; stroke-width: 1.6500000000000001;" x1="97.9634" x2="350.9634" y1="445.5" y2="445.5"/><text fill="#000000" font-family="sans-serif" font-size="12.1" lengthAdjust="spacingAndGlyphs" textLength="71.5" x="103.4634" y="462.4608">+getByID():int</text><text fill="#000000" font-family="sans-serif" font-size="12.1" lengthAdjust="spacingAndGlyphs" textLength="60.5" x="103.4634" y="477.6804">+getAll():int</text><text fill="#000000" font-family="sans-serif" font-size="12.1" lengthAdjust="spacingAndGlyphs" textLength="225.5" x="103.4634" y="492.8999">+add(titleAdvertisements,shortDescription,</text><text fill="#000000" font-family="sans-serif" font-size="12.1" lengthAdjust="spacingAndGlyphs" textLength="147.4" x="103.4634" y="508.1194">fullDescription,wages,place</text><text fill="#000000" font-family="sans-serif" font-size="12.1" lengthAdjust="spacingAndGlyphs" textLength="193.6" x="103.4634" y="523.339">,TypeOfJob,hourWeek,CompaniesID,</text><text fill="#000000" font-family="sans-serif" font-size="12.1" lengthAdjust="spacingAndGlyphs" textLength="35.2" x="103.4634" y="538.5585">image)</text><text fill="#000000" font-family="sans-serif" font-size="12.1" lengthAdjust="spacingAndGlyphs" textLength="242" x="103.4634" y="553.778">+update(titleAdvertisements,shortDescription,</text><text fill="#000000" font-family="sans-serif" font-size="12.1" lengthAdjust="spacingAndGlyphs" textLength="147.4" x="103.4634" y="568.9976">fullDescription,wages,place</text><text fill="#000000" font-family="sans-serif" font-size="12.1" lengthAdjust="spacingAndGlyphs" textLength="193.6" x="103.4634" y="584.2171">,TypeOfJob,hourWeek,CompaniesID,</text><text fill="#000000" font-family="sans-serif" font-size="12.1" lengthAdjust="spacingAndGlyphs" textLength="35.2" x="103.4634" y="599.4366">image)</text><text fill="#000000" font-family="sans-serif" font-size="12.1" lengthAdjust="spacingAndGlyphs" textLength="62.7" x="103.4634" y="614.6562">+delete():int</text><text fill="#000000" font-family="sans-serif" font-size="12.1" lengthAdjust="spacingAndGlyphs" textLength="71.5" x="103.4634" y="629.8757">+getByID():int</text><text fill="#000000" font-family="sans-serif" font-size="12.1" lengthAdjust="spacingAndGlyphs" textLength="60.5" x="103.4634" y="645.0952">+getAll():int</text><text fill="#000000" font-family="sans-serif" font-size="12.1" lengthAdjust="spacingAndGlyphs" textLength="225.5" x="103.4634" y="660.3147">+add(titleAdvertisements,shortDescription,</text><text fill="#000000" font-family="sans-serif" font-size="12.1" lengthAdjust="spacingAndGlyphs" textLength="147.4" x="103.4634" y="675.5343">fullDescription,wages,place</text><text fill="#000000" font-family="sans-serif" font-size="12.1" lengthAdjust="spacingAndGlyphs" textLength="193.6" x="103.4634" y="690.7538">,TypeOfJob,hourWeek,CompaniesID,</text><text fill="#000000" font-family="sans-serif" font-size="12.1" lengthAdjust="spacingAndGlyphs" textLength="35.2" x="103.4634" y="705.9733">image)</text><text fill="#000000" font-family="sans-serif" font-size="12.1" lengthAdjust="spacingAndGlyphs" textLength="242" x="103.4634" y="721.1929">+update(titleAdvertisements,shortDescription,</text><text fill="#000000" font-family="sans-serif" font-size="12.1" lengthAdjust="spacingAndGlyphs" textLength="147.4" x="103.4634" y="736.4124">fullDescription,wages,place</text><text fill="#000000" font-family="sans-serif" font-size="12.1" lengthAdjust="spacingAndGlyphs" textLength="193.6" x="103.4634" y="751.6319">,TypeOfJob,hourWeek,CompaniesID,</text><text fill="#000000" font-family="sans-serif" font-size="12.1" lengthAdjust="spacingAndGlyphs" textLength="35.2" x="103.4634" y="766.8515">image)</text><text fill="#000000" font-family="sans-serif" font-size="12.1" lengthAdjust="spacingAndGlyphs" textLength="62.7" x="103.4634" y="782.071">+delete():int</text><!--MD5=[37c281712b1f51d591729d8a39ba31ff]
class card--><rect fill="#FEFECE" filter="url(#fjzqg1qpsiujj)" height="83.2391" id="card" style="stroke: #A80036; stroke-width: 1.6500000000000001;" width="84.7" x="921.3138" y="123.75"/><ellipse cx="948.2088" cy="141.35" fill="#ADD1B2" rx="12.1" ry="12.1" style="stroke: #A80036; stroke-width: 1.1;"/><path d="M950.4088,137.5 Q950.6322,136.95 950.8901,136.675 Q951.1479,136.4 951.4401,136.4 Q951.9557,136.4 952.2822,136.7094 Q952.6088,137.0188 952.6088,137.7406 L952.6088,139.4594 Q952.6088,140.1813 952.2994,140.4906 Q951.9901,140.8 951.5088,140.8 Q951.0791,140.8 950.8041,140.6109 Q950.5291,140.4219 950.4088,139.9234 Q950.3572,139.5797 950.1682,139.3906 Q949.8244,139.0297 949.2057,138.8234 Q948.5869,138.6 947.9682,138.6 Q947.1947,138.6 946.5416,138.9094 Q945.9057,139.2188 945.4072,139.9063 Q944.9088,140.5938 944.9088,141.5391 L944.9088,142.5531 Q944.9088,143.6875 945.8369,144.4438 Q946.7651,145.2 948.4151,145.2 Q949.3947,145.2 950.0822,144.9766 Q950.4776,144.8563 950.9244,144.4609 Q951.2166,144.2375 951.3713,144.1688 Q951.526,144.1 951.7151,144.1 Q952.076,144.1 952.3338,144.3922 Q952.6088,144.6672 952.6088,145.0625 Q952.6088,145.4406 952.2307,145.8875 Q951.6807,146.5406 950.8041,146.9016 Q949.6526,147.4 948.2432,147.4 Q946.5932,147.4 945.2697,146.7469 Q944.2041,146.2313 943.4479,145.1141 Q942.7088,143.9969 942.7088,142.6734 L942.7088,141.4703 Q942.7088,140.0953 943.3619,138.8922 Q944.0322,137.6891 945.1838,137.0531 Q946.3526,136.4 947.6588,136.4 Q948.4494,136.4 949.1369,136.675 Q949.8244,136.95 950.4088,137.5 Z "/><text fill="#000000" font-family="sans-serif" font-size="13.2" lengthAdjust="spacingAndGlyphs" textLength="26.4" x="965.9188" y="146.7512">card</text><line style="stroke: #A80036; stroke-width: 1.6500000000000001;" x1="922.4138" x2="1004.9138" y1="158.95" y2="158.95"/><line style="stroke: #A80036; stroke-width: 1.6500000000000001;" x1="922.4138" x2="1004.9138" y1="167.75" y2="167.75"/><text fill="#000000" font-family="sans-serif" font-size="12.1" lengthAdjust="spacingAndGlyphs" textLength="71.5" x="927.9138" y="184.7108">+getByID():int</text><text fill="#000000" font-family="sans-serif" font-size="12.1" lengthAdjust="spacingAndGlyphs" textLength="60.5" x="927.9138" y="199.9304">+getAll():int</text><!--MD5=[0131c8e2525db5d3c8ed7b28da0d0c19]
class adminPageEntreprise--><rect fill="#FEFECE" filter="url(#fjzqg1qpsiujj)" height="113.6781" id="adminPageEntreprise" style="stroke: #A80036; stroke-width: 1.6500000000000001;" width="168.3" x="714.5138" y="108.9"/><ellipse cx="731.0138" cy="126.5" fill="#ADD1B2" rx="12.1" ry="12.1" style="stroke: #A80036; stroke-width: 1.1;"/><path d="M733.2138,122.65 Q733.4372,122.1 733.6951,121.825 Q733.9529,121.55 734.2451,121.55 Q734.7607,121.55 735.0872,121.8594 Q735.4138,122.1688 735.4138,122.8906 L735.4138,124.6094 Q735.4138,125.3313 735.1044,125.6406 Q734.7951,125.95 734.3138,125.95 Q733.8841,125.95 733.6091,125.7609 Q733.3341,125.5719 733.2138,125.0734 Q733.1622,124.7297 732.9732,124.5406 Q732.6294,124.1797 732.0107,123.9734 Q731.3919,123.75 730.7732,123.75 Q729.9997,123.75 729.3466,124.0594 Q728.7107,124.3688 728.2122,125.0563 Q727.7138,125.7438 727.7138,126.6891 L727.7138,127.7031 Q727.7138,128.8375 728.6419,129.5938 Q729.5701,130.35 731.2201,130.35 Q732.1997,130.35 732.8872,130.1266 Q733.2826,130.0063 733.7294,129.6109 Q734.0216,129.3875 734.1763,129.3188 Q734.331,129.25 734.5201,129.25 Q734.881,129.25 735.1388,129.5422 Q735.4138,129.8172 735.4138,130.2125 Q735.4138,130.5906 735.0357,131.0375 Q734.4857,131.6906 733.6091,132.0516 Q732.4576,132.55 731.0482,132.55 Q729.3982,132.55 728.0747,131.8969 Q727.0091,131.3813 726.2529,130.2641 Q725.5138,129.1469 725.5138,127.8234 L725.5138,126.6203 Q725.5138,125.2453 726.1669,124.0422 Q726.8372,122.8391 727.9888,122.2031 Q729.1576,121.55 730.4638,121.55 Q731.2544,121.55 731.9419,121.825 Q732.6294,122.1 733.2138,122.65 Z "/><text fill="#000000" font-family="sans-serif" font-size="13.2" lengthAdjust="spacingAndGlyphs" textLength="133.1" x="746.4138" y="131.9012">adminPageEntreprise</text><line style="stroke: #A80036; stroke-width: 1.6500000000000001;" x1="715.6138" x2="881.7138" y1="144.1" y2="144.1"/><line style="stroke: #A80036; stroke-width: 1.6500000000000001;" x1="715.6138" x2="881.7138" y1="152.9" y2="152.9"/><text fill="#000000" font-family="sans-serif" font-size="12.1" lengthAdjust="spacingAndGlyphs" textLength="60.5" x="721.1138" y="169.8608">+getAll():int</text><text fill="#000000" font-family="sans-serif" font-size="12.1" lengthAdjust="spacingAndGlyphs" textLength="122.1" x="721.1138" y="185.0804">+add(nameCompanies)</text><text fill="#000000" font-family="sans-serif" font-size="12.1" lengthAdjust="spacingAndGlyphs" textLength="150.7" x="721.1138" y="200.2999">+update(id,nameCompanies)</text><text fill="#000000" font-family="sans-serif" font-size="12.1" lengthAdjust="spacingAndGlyphs" textLength="62.7" x="721.1138" y="215.5194">+delete():int</text><!--MD5=[c40cba5b70ea2766dcb33aa77dbdeeae]
class applyCard--><rect fill="#FEFECE" filter="url(#fjzqg1qpsiujj)" height="68.0195" id="applyCard" style="stroke: #A80036; stroke-width: 1.6500000000000001;" width="239.8" x="195.8638" y="277.75"/><ellipse cx="280.2888" cy="295.35" fill="#ADD1B2" rx="12.1" ry="12.1" style="stroke: #A80036; stroke-width: 1.1;"/><path d="M282.4888,291.5 Q282.7122,290.95 282.9701,290.675 Q283.2279,290.4 283.5201,290.4 Q284.0357,290.4 284.3622,290.7094 Q284.6888,291.0188 284.6888,291.7406 L284.6888,293.4594 Q284.6888,294.1813 284.3794,294.4906 Q284.0701,294.8 283.5888,294.8 Q283.1591,294.8 282.8841,294.6109 Q282.6091,294.4219 282.4888,293.9234 Q282.4372,293.5797 282.2482,293.3906 Q281.9044,293.0297 281.2857,292.8234 Q280.6669,292.6 280.0482,292.6 Q279.2747,292.6 278.6216,292.9094 Q277.9857,293.2188 277.4872,293.9063 Q276.9888,294.5938 276.9888,295.5391 L276.9888,296.5531 Q276.9888,297.6875 277.9169,298.4438 Q278.8451,299.2 280.4951,299.2 Q281.4747,299.2 282.1622,298.9766 Q282.5576,298.8563 283.0044,298.4609 Q283.2966,298.2375 283.4513,298.1688 Q283.606,298.1 283.7951,298.1 Q284.156,298.1 284.4138,298.3922 Q284.6888,298.6672 284.6888,299.0625 Q284.6888,299.4406 284.3107,299.8875 Q283.7607,300.5406 282.8841,300.9016 Q281.7326,301.4 280.3232,301.4 Q278.6732,301.4 277.3497,300.7469 Q276.2841,300.2313 275.5279,299.1141 Q274.7888,297.9969 274.7888,296.6734 L274.7888,295.4703 Q274.7888,294.0953 275.4419,292.8922 Q276.1122,291.6891 277.2638,291.0531 Q278.4326,290.4 279.7388,290.4 Q280.5294,290.4 281.2169,290.675 Q281.9044,290.95 282.4888,291.5 Z "/><text fill="#000000" font-family="sans-serif" font-size="13.2" lengthAdjust="spacingAndGlyphs" textLength="61.6" x="302.8388" y="300.7512">applyCard</text><line style="stroke: #A80036; stroke-width: 1.6500000000000001;" x1="196.9638" x2="434.5638" y1="312.95" y2="312.95"/><line style="stroke: #A80036; stroke-width: 1.6500000000000001;" x1="196.9638" x2="434.5638" y1="321.75" y2="321.75"/><text fill="#000000" font-family="sans-serif" font-size="12.1" lengthAdjust="spacingAndGlyphs" textLength="226.6" x="202.4638" y="338.7108">+add(message,peopleID,advertisementsID)</text><!--MD5=[64122b82a909dd5dbb35b65fba5c31c2]
class route--><rect fill="#FEFECE" filter="url(#fjzqg1qpsiujj)" height="52.8" id="route" style="stroke: #A80036; stroke-width: 1.6500000000000001;" width="66" x="430.1638" y="139.15"/><ellipse cx="446.6638" cy="156.75" fill="#ADD1B2" rx="12.1" ry="12.1" style="stroke: #A80036; stroke-width: 1.1;"/><path d="M448.8638,152.9 Q449.0872,152.35 449.3451,152.075 Q449.6029,151.8 449.8951,151.8 Q450.4107,151.8 450.7372,152.1094 Q451.0638,152.4188 451.0638,153.1406 L451.0638,154.8594 Q451.0638,155.5813 450.7544,155.8906 Q450.4451,156.2 449.9638,156.2 Q449.5341,156.2 449.2591,156.0109 Q448.9841,155.8219 448.8638,155.3234 Q448.8122,154.9797 448.6232,154.7906 Q448.2794,154.4297 447.6607,154.2234 Q447.0419,154 446.4232,154 Q445.6497,154 444.9966,154.3094 Q444.3607,154.6188 443.8622,155.3063 Q443.3638,155.9938 443.3638,156.9391 L443.3638,157.9531 Q443.3638,159.0875 444.2919,159.8438 Q445.2201,160.6 446.8701,160.6 Q447.8497,160.6 448.5372,160.3766 Q448.9326,160.2563 449.3794,159.8609 Q449.6716,159.6375 449.8263,159.5688 Q449.981,159.5 450.1701,159.5 Q450.531,159.5 450.7888,159.7922 Q451.0638,160.0672 451.0638,160.4625 Q451.0638,160.8406 450.6857,161.2875 Q450.1357,161.9406 449.2591,162.3016 Q448.1076,162.8 446.6982,162.8 Q445.0482,162.8 443.7247,162.1469 Q442.6591,161.6313 441.9029,160.5141 Q441.1638,159.3969 441.1638,158.0734 L441.1638,156.8703 Q441.1638,155.4953 441.8169,154.2922 Q442.4872,153.0891 443.6388,152.4531 Q444.8076,151.8 446.1138,151.8 Q446.9044,151.8 447.5919,152.075 Q448.2794,152.35 448.8638,152.9 Z "/><text fill="#000000" font-family="sans-serif" font-size="13.2" lengthAdjust="spacingAndGlyphs" textLength="30.8" x="462.0638" y="162.1512">route</text><line style="stroke: #A80036; stroke-width: 1.6500000000000001;" x1="431.2638" x2="495.0638" y1="174.35" y2="174.35"/><line style="stroke: #A80036; stroke-width: 1.6500000000000001;" x1="431.2638" x2="495.0638" y1="183.15" y2="183.15"/><!--MD5=[088ccf32d3f9fe08d5ee24272f67d32a]
class express--><rect fill="#FEFECE" filter="url(#fjzqg1qpsiujj)" height="52.8" id="express" style="stroke: #A80036; stroke-width: 1.6500000000000001;" width="83.6" x="421.3638" y="568.7"/><ellipse cx="437.8638" cy="586.3" fill="#ADD1B2" rx="12.1" ry="12.1" style="stroke: #A80036; stroke-width: 1.1;"/><path d="M440.0638,582.45 Q440.2872,581.9 440.5451,581.625 Q440.8029,581.35 441.0951,581.35 Q441.6107,581.35 441.9372,581.6594 Q442.2638,581.9688 442.2638,582.6906 L442.2638,584.4094 Q442.2638,585.1313 441.9544,585.4406 Q441.6451,585.75 441.1638,585.75 Q440.7341,585.75 440.4591,585.5609 Q440.1841,585.3719 440.0638,584.8734 Q440.0122,584.5297 439.8232,584.3406 Q439.4794,583.9797 438.8607,583.7734 Q438.2419,583.55 437.6232,583.55 Q436.8497,583.55 436.1966,583.8594 Q435.5607,584.1688 435.0622,584.8563 Q434.5638,585.5438 434.5638,586.4891 L434.5638,587.5031 Q434.5638,588.6375 435.4919,589.3938 Q436.4201,590.15 438.0701,590.15 Q439.0497,590.15 439.7372,589.9266 Q440.1326,589.8063 440.5794,589.4109 Q440.8716,589.1875 441.0263,589.1188 Q441.181,589.05 441.3701,589.05 Q441.731,589.05 441.9888,589.3422 Q442.2638,589.6172 442.2638,590.0125 Q442.2638,590.3906 441.8857,590.8375 Q441.3357,591.4906 440.4591,591.8516 Q439.3076,592.35 437.8982,592.35 Q436.2482,592.35 434.9247,591.6969 Q433.8591,591.1813 433.1029,590.0641 Q432.3638,588.9469 432.3638,587.6234 L432.3638,586.4203 Q432.3638,585.0453 433.0169,583.8422 Q433.6872,582.6391 434.8388,582.0031 Q436.0076,581.35 437.3138,581.35 Q438.1044,581.35 438.7919,581.625 Q439.4794,581.9 440.0638,582.45 Z "/><text fill="#000000" font-family="sans-serif" font-size="13.2" lengthAdjust="spacingAndGlyphs" textLength="48.4" x="453.2638" y="591.7012">express</text><line style="stroke: #A80036; stroke-width: 1.6500000000000001;" x1="422.4638" x2="503.8638" y1="603.9" y2="603.9"/><line style="stroke: #A80036; stroke-width: 1.6500000000000001;" x1="422.4638" x2="503.8638" y1="612.7" y2="612.7"/><!--MD5=[ab0f4a2b5045c6acb7e7920281681dad]
link route to card--><path d="M507.68,139.2199 C507.68,139.2199 613.1642,85.2148 672.7138,72.6 C773.6751,51.2127 810.7528,60.8047 902.0638,108.9 C905.5002,110.7106 908.8904,112.7599 912.208,114.9797 " fill="none" id="route-card" style="stroke: #A80036; stroke-width: 1.1;"/><polygon fill="#A80036" points="923.8449,123.6367,918.5279,114.1974,919.432,120.3539,913.2755,121.258,923.8449,123.6367" style="stroke: #A80036; stroke-width: 1.1;"/><line style="stroke: #A80036; stroke-width: 1.1;" x1="919.432" x2="912.3719" y1="120.3539" y2="115.1018"/><polygon fill="#A80036" points="496.1649,145.673,504.0735,146.2848,507.68,139.2199,499.7714,138.6081,496.1649,145.673" style="stroke: #A80036; stroke-width: 1.1;"/><text fill="#000000" font-family="sans-serif" font-size="14.3" lengthAdjust="spacingAndGlyphs" textLength="69.3" x="673.8138" y="72.0446">cardRouter</text><text fill="#000000" font-family="sans-serif" font-size="14.3" lengthAdjust="spacingAndGlyphs" textLength="7.7" x="505.1474" y="135.9747">1</text><text fill="#000000" font-family="sans-serif" font-size="14.3" lengthAdjust="spacingAndGlyphs" textLength="7.7" x="908.3664" y="111.9146">1</text><!--MD5=[60f2e27eb42b9d2f198b5e209470795b]
reverse link express to route--><path d="M525.1686,566.9103 C642.8961,511.7189 878.8516,380.8211 783.2638,255.2 C774.3593,243.4993 576.3802,194.216 496.3178,174.6778 " fill="none" id="express&lt;-route" style="stroke: #A80036; stroke-width: 1.1;"/><polygon fill="none" points="528.2112,573.9866,505.0045,576.1657,521.7861,559.9902,528.2112,573.9866" style="stroke: #A80036; stroke-width: 1.1;"/><text fill="#000000" font-family="sans-serif" font-size="14.3" lengthAdjust="spacingAndGlyphs" textLength="23.1" x="806.3638" y="317.8946">app</text><text fill="#000000" font-family="sans-serif" font-size="14.3" lengthAdjust="spacingAndGlyphs" textLength="7.7" x="531.1954" y="569.5374">1</text><text fill="#000000" font-family="sans-serif" font-size="14.3" lengthAdjust="spacingAndGlyphs" textLength="7.7" x="518.1466" y="192.637">0</text><!--MD5=[b50acd998481ef06fddef62fa383df20]
link route to applyCard--><path d="M427.7119,201.3082 C427.7119,201.3082 381.5581,246.4286 360.2511,267.2582 " fill="none" id="route-applyCard" style="stroke: #A80036; stroke-width: 1.1;"/><polygon fill="#A80036" points="349.8275,277.4486,359.9826,273.6745,353.7605,273.6039,353.8311,267.3817,349.8275,277.4486" style="stroke: #A80036; stroke-width: 1.1;"/><line style="stroke: #A80036; stroke-width: 1.1;" x1="353.7605" x2="360.0526" y1="273.6039" y2="267.4524"/><polygon fill="#FFFFFF" points="437.151,192.0809,429.3557,193.5482,427.7119,201.3082,435.5072,199.8409,437.151,192.0809" style="stroke: #A80036; stroke-width: 1.1;"/><text fill="#000000" font-family="sans-serif" font-size="14.3" lengthAdjust="spacingAndGlyphs" textLength="105.6" x="286.77" y="230.9286">applyCardRouter</text><text fill="#000000" font-family="sans-serif" font-size="14.3" lengthAdjust="spacingAndGlyphs" textLength="7.7" x="422.1719" y="215.5846">1</text><text fill="#000000" font-family="sans-serif" font-size="14.3" lengthAdjust="spacingAndGlyphs" textLength="7.7" x="348.3591" y="265.8414">1</text><!--MD5=[a0b2007c0fa9d7da703a6f150aaf9e91]
link route to modifiedAndCreateAccount--><path d="M498.8437,201.2729 C498.8437,201.2729 528.6358,230.1827 543.8752,244.9711 " fill="none" id="route-modifiedAndCreateAccount" style="stroke: #A80036; stroke-width: 1.1;"/><polygon fill="#A80036" points="554.3362,255.1208,550.2967,245.0683,550.3895,251.2902,544.1677,251.383,554.3362,255.1208" style="stroke: #A80036; stroke-width: 1.1;"/><line style="stroke: #A80036; stroke-width: 1.1;" x1="550.3895" x2="544.0732" y1="251.2902" y2="245.1625"/><polygon fill="#FFFFFF" points="489.3702,192.0809,491.0429,199.8347,498.8437,201.2729,497.1709,193.5191,489.3702,192.0809" style="stroke: #A80036; stroke-width: 1.1;"/><text fill="#000000" font-family="sans-serif" font-size="14.3" lengthAdjust="spacingAndGlyphs" textLength="214.5" x="522.8674" y="239.4624">modifiedAndCreateAccountRouter</text><text fill="#000000" font-family="sans-serif" font-size="14.3" lengthAdjust="spacingAndGlyphs" textLength="7.7" x="487.1196" y="215.5846">1</text><text fill="#000000" font-family="sans-serif" font-size="14.3" lengthAdjust="spacingAndGlyphs" textLength="7.7" x="538.0331" y="243.151">1</text><!--MD5=[f5f7164b8fb307fcb9027b2756ee451e]
link route to adminPageEntreprise--><path d="M509.4507,165.55 C509.4507,165.55 637.4203,165.55 699.7056,165.55 " fill="none" id="route-adminPageEntreprise" style="stroke: #A80036; stroke-width: 1.1;"/><polygon fill="#A80036" points="714.3675,165.55,704.4675,161.15,708.8675,165.55,704.4675,169.95,714.3675,165.55" style="stroke: #A80036; stroke-width: 1.1;"/><line style="stroke: #A80036; stroke-width: 1.1;" x1="708.8675" x2="700.0681" y1="165.55" y2="165.55"/><polygon fill="#FFFFFF" points="496.2507,165.55,502.8507,169.95,509.4507,165.55,502.8507,161.15,496.2507,165.55" style="stroke: #A80036; stroke-width: 1.1;"/><text fill="#000000" font-family="sans-serif" font-size="14.3" lengthAdjust="spacingAndGlyphs" textLength="178.2" x="516.2388" y="158.3946">adminPageEntrepriseRouter</text><text fill="#000000" font-family="sans-serif" font-size="14.3" lengthAdjust="spacingAndGlyphs" textLength="7.7" x="504.7924" y="160.8043">1</text><text fill="#000000" font-family="sans-serif" font-size="14.3" lengthAdjust="spacingAndGlyphs" textLength="7.7" x="697.9906" y="161.9288">1</text><!--MD5=[603740dce595c3391a11b8ea1518bb44]
link route to adminPageCard--><path d="M416.7402,169.0122 C416.7402,169.0122 79.0535,196.1388 30.8634,255.2 C-24.0184,322.4628 24.553,407.2783 86.7589,475.2198 " fill="none" id="route-adminPageCard" style="stroke: #A80036; stroke-width: 1.1;"/><polygon fill="#A80036" points="96.8459,485.9745,93.2818,475.7438,93.083,481.9631,86.8637,481.7643,96.8459,485.9745" style="stroke: #A80036; stroke-width: 1.1;"/><line style="stroke: #A80036; stroke-width: 1.1;" x1="93.083" x2="87.0629" y1="481.9631" y2="475.5443"/><polygon fill="#FFFFFF" points="429.9174,168.2362,423.0702,164.2318,416.7402,169.0122,423.5875,173.0166,429.9174,168.2362" style="stroke: #A80036; stroke-width: 1.1;"/><text fill="#000000" font-family="sans-serif" font-size="14.3" lengthAdjust="spacingAndGlyphs" textLength="143" x="31.9634" y="317.8946">adminPageCardRouter</text><text fill="#000000" font-family="sans-serif" font-size="14.3" lengthAdjust="spacingAndGlyphs" textLength="7.7" x="413.6389" y="164.1117">1</text><text fill="#000000" font-family="sans-serif" font-size="14.3" lengthAdjust="spacingAndGlyphs" textLength="7.7" x="80.3129" y="475.2946">1</text><!--MD5=[f38c936721a88658e73909b9c010d271]
link adminPageCard to express--><!--MD5=[596242eca0f7ead9ac707eb16d4ba8bb]
link applyCard to express--><!--MD5=[53fd5836e67c649be81d602a448ea78a]
link modifiedAndCreateAccount to express--><!--MD5=[af3cffe8dd29e69c4f4497517037eedb]
@startuml
skinparam classAttributeIconSize 0
hide footbox




class modifiedAndCreateAccount {
    +getAll():int
    +add(mailPeople, namePeople, phonePeople, statusPeople)
    +update(mailPeople, namePeople, phonePeople, statusPeople)
    +delete():int
}


class adminPageCard {
    +getByID():int
    +getAll():int
    +add(titleAdvertisements,shortDescription,\nfullDescription,wages,place\n,TypeOfJob,hourWeek,CompaniesID,\nimage)
    +update(titleAdvertisements,shortDescription,\nfullDescription,wages,place\n,TypeOfJob,hourWeek,CompaniesID,\nimage)
    +delete():int
}
class card {
    +getByID():int
    +getAll():int
}

class adminPageCard {
    +getByID():int
    +getAll():int
    +add(titleAdvertisements,shortDescription,\nfullDescription,wages,place\n,TypeOfJob,hourWeek,CompaniesID,\nimage)
    +update(titleAdvertisements,shortDescription,\nfullDescription,wages,place\n,TypeOfJob,hourWeek,CompaniesID,\nimage)
    +delete():int
}
class adminPageEntreprise {
    +getAll():int
    +add(nameCompanies)
    +update(id,nameCompanies)
    +delete():int
}

class applyCard {
    +add(message,peopleID,advertisementsID)
}






class route {

}
class express {

}


route "1" *->  "1" card : cardRouter


express "    1   " <|- - "   0   " route  : app
route "1" o->  "1" applyCard : applyCardRouter
route "1" o->  "1" modifiedAndCreateAccount : modifiedAndCreateAccountRouter
route "1" o->  "1" adminPageEntreprise : adminPageEntrepriseRouter
route "1" o->  "1" adminPageCard : adminPageCardRouter

adminPageCard -[hidden]> express
applyCard -[hidden]> express
modifiedAndCreateAccount -[hidden]> express

@enduml

PlantUML version 1.2020.09(Sun May 10 12:51:06 CEST 2020)
(GPL source distribution)
Java Runtime: OpenJDK Runtime Environment
JVM: OpenJDK 64-Bit Server VM
Java Version: 11.0.8+10-b944.34
Operating System: Windows 10
Default Encoding: Cp1252
Language: fr
Country: FR
--></g></svg>